<?xml version="1.0" encoding="utf-8"?>
<!-- Generator: Adobe Illustrator 27.5.0, SVG Export Plug-In . SVG Version: 6.00 Build 0)  -->
<svg version="1.1" xmlns="http://www.w3.org/2000/svg" xmlns:xlink="http://www.w3.org/1999/xlink" x="0px" y="0px"
	 viewBox="0 0 2500 2500" style="enable-background:new 0 0 2500 2500;" xml:space="preserve">
<g id="Background">
	<rect style="fill:#FFFFFF;" width="2500" height="2500"/>
</g>
<g id="Illustration">
	<g id="System_software_development_1_">
		<circle style="fill:#F2E6DC;" cx="1250" cy="1250" r="915"/>
		<g>
			<g>
				<path style="fill:#D3BBA3;" d="M1135.85,621.627h-28.664c-2.567-13.973-6.227-27.56-10.88-40.68l24.806-14.322l-48.503-84.011
					l-24.863,14.355c-9.124-10.681-19.074-20.632-29.755-29.756l14.354-24.863l-84.01-48.503l-14.322,24.807
					c-13.119-4.653-26.707-8.314-40.68-10.88v-28.664h-97.007l0,28.664c-13.973,2.567-27.56,6.227-40.68,10.88l-14.322-24.807
					l-84.011,48.504l14.354,24.863c-10.681,9.124-20.632,19.075-29.756,29.756l-24.862-14.355l-48.503,84.011l24.806,14.322
					c-4.653,13.119-8.313,26.707-10.88,40.68h-28.664l0,97.007h28.664c2.567,13.973,6.227,27.56,10.88,40.68l-24.806,14.322
					l48.503,84.011l24.863-14.355c9.124,10.681,19.075,20.632,29.756,29.756l-14.354,24.863l84.011,48.504l14.322-24.807
					c13.12,4.653,26.707,8.314,40.68,10.88v28.663l97.007,0v-28.664c13.972-2.567,27.56-6.227,40.68-10.88l14.322,24.807
					l84.011-48.504l-14.354-24.863c10.681-9.124,20.631-19.075,29.755-29.756l24.863,14.355l48.503-84.011l-24.806-14.322
					c4.652-13.119,8.313-26.707,10.88-40.68h28.664V621.627z M993.396,732.091c-15.067,39.854-46.759,71.545-86.613,86.61
					c-135.416,51.189-261.716-75.113-210.523-210.53c15.067-39.855,46.758-71.546,86.614-86.611
					C918.291,470.371,1044.592,596.674,993.396,732.091z"/>
			</g>
			<path style="fill:#F2E6DC;" d="M844.828,883.333c-117.56,0-213.202-95.643-213.202-213.203
				c0-51.366,18.524-100.987,52.161-139.723c33.302-38.351,79.156-63.603,129.114-71.105c0.548-0.083,1.056,0.295,1.138,0.84
				c0.082,0.546-0.295,1.055-0.841,1.137C710.825,476.653,633.626,566.44,633.626,670.13c0,116.458,94.745,211.203,211.202,211.203
				c96.226,0,180.295-64.965,204.441-157.982c0.139-0.534,0.683-0.857,1.219-0.716c0.535,0.139,0.855,0.685,0.717,1.219
				C1026.83,817.752,941.965,883.333,844.828,883.333z"/>
		</g>
		<g>
			<g>
				<path style="fill:#FFFFFF;" d="M2100.232,1206.092h-17.829c-1.596-8.691-3.874-17.142-6.767-25.302l15.429-8.908l-30.168-52.254
					l-15.465,8.928c-5.675-6.644-11.864-12.833-18.508-18.508l8.928-15.464l-52.254-30.169l-8.908,15.429
					c-8.16-2.894-16.611-5.171-25.302-6.768v-17.829h-60.337l0,17.829c-8.691,1.597-17.142,3.873-25.302,6.768l-8.908-15.43
					l-52.254,30.169l8.928,15.464c-6.644,5.675-12.833,11.864-18.508,18.508l-15.464-8.928l-30.169,52.254l15.429,8.908
					c-2.894,8.16-5.171,16.612-6.767,25.302h-17.828l0,60.337h17.829c1.597,8.691,3.873,17.142,6.767,25.302l-15.429,8.908
					l30.168,52.254l15.465-8.928c5.675,6.644,11.864,12.833,18.508,18.508l-8.928,15.464l52.254,30.169l8.908-15.43
					c8.16,2.894,16.612,5.171,25.302,6.768v17.828l60.337,0v-17.828c8.691-1.597,17.142-3.873,25.302-6.768l8.908,15.43
					l52.254-30.169l-8.928-15.464c6.643-5.675,12.833-11.864,18.508-18.508l15.464,8.929l30.169-52.254l-15.429-8.908
					c2.894-8.16,5.171-16.611,6.767-25.302h17.829V1206.092z M2011.627,1274.8c-9.372,24.789-29.083,44.5-53.873,53.87
					c-84.227,31.839-162.785-46.72-130.943-130.947c9.371-24.789,29.083-44.501,53.873-53.871
					C1964.913,1112.013,2043.47,1190.572,2011.627,1274.8z"/>
			</g>
			<path style="fill:#F2E6DC;" d="M1919.22,1369.249c-73.329,0-132.987-59.658-132.987-132.988c0-32.04,11.555-62.992,32.536-87.154
				c20.772-23.922,49.375-39.673,80.537-44.353c0.552-0.086,1.055,0.294,1.138,0.84c0.082,0.546-0.295,1.055-0.841,1.137
				c-63.491,9.535-111.37,65.22-111.37,129.529c0,72.227,58.761,130.988,130.987,130.988c59.68,0,111.819-40.291,126.794-97.98
				c0.14-0.534,0.687-0.856,1.219-0.716c0.535,0.139,0.855,0.685,0.717,1.219C2032.746,1328.342,1979.811,1369.249,1919.22,1369.249
				z"/>
		</g>
		<g>
			<polygon style="fill:#363E44;" points="1876.148,1007.492 1802.038,1284.198 1734.089,973.716 			"/>
			<g>
				<g>
					<path style="fill:#8B865C;" d="M1918.585,820.586l122.709,53.59c38.527,16.826,83.825,3.103,105.913-32.087
						c20.969-33.408,14.986-76.669-14.341-103.374c-30.638-27.899-67.962-60.781-89.439-75.69
						C2002.482,634.602,1918.585,820.586,1918.585,820.586z"/>
					<path style="fill:#8B865C;" d="M1426.724,577.005c0,0,29.539-65.324,216.831-60.984l6.965,78.475L1426.724,577.005z"/>
					<path style="fill:#8B865C;" d="M1643.555,516.021c0,0,256.108,31.121,405.018,151.062l-115.884,163.876l-57.048,191.716
						c-16.018,4.455-146.691-4.781-171.926-1.036c0,0-4.38,0.893-49.411,0.274c-53.888-0.741-19.323-55.104-142.477-103.419
						c32.127-77.328,64.253-154.655,96.38-231.983L1643.555,516.021z"/>
				</g>
			</g>
			<g>
				<g>
					<path style="fill:#84524D;" d="M1900.763,370.645c-2.713-1.773-28.95-18.363-55.271-8.261
						c-19.585,7.516-30.43,24.646-44.274,56.127c-16.304,37.073-20.871,61.512-14.264,73.971
						c10.439,19.687,72.299,20.253,107.006-1.403c25.052-15.631,38.752-45.482,36.436-75.128
						C1928.088,386.388,1902.495,371.777,1900.763,370.645z"/>
					<path style="fill:#84524D;" d="M1816.47,613.188c23.668,8.75,49.949-3.343,58.7-27.011l48.248-130.503
						c8.75-23.668-3.343-49.949-27.011-58.699c-23.668-8.75-49.949,3.343-58.699,27.011l-48.248,130.503
						C1780.709,578.157,1792.802,604.438,1816.47,613.188z"/>
					<path style="fill:#363E44;" d="M1830.536,509.464c-8.737,0-16.831-0.867-23.562-2.477c-0.537-0.128-0.868-0.668-0.74-1.205
						c0.128-0.538,0.672-0.866,1.205-0.74c22.636,5.413,60.829,1.791,85.56-13.639c0.47-0.292,1.087-0.149,1.378,0.319
						c0.292,0.469,0.149,1.085-0.319,1.378C1875.675,504.57,1851.289,509.464,1830.536,509.464z"/>
					<g>
						<path style="fill:#FFFFFF;" d="M1865.621,432.572c0,0-8.767,8.79-21.374,12.57c-2.649,0.794-4.079-22.133-1.207-21.7
							C1855.854,425.375,1865.621,432.572,1865.621,432.572z"/>
						<path style="fill:#363E44;" d="M1804.253,437.235c0,0,14.637,10.785,31.583,9.497c2.963-0.225,5.796-0.81,8.461-1.612
							c3.517-7.148,2.853-15.321-1.144-21.66c-2.906-0.447-5.971-0.624-9.115-0.385
							C1817.092,424.363,1804.253,437.235,1804.253,437.235z"/>
					</g>
					<path style="fill:#363E44;" d="M1810.411,468.213c-3.028,0-6.022-1.559-7.848-4.261c-0.309-0.457-0.188-1.079,0.27-1.388
						c0.455-0.309,1.079-0.189,1.389,0.269c1.864,2.76,5.24,4.019,8.217,3.065c3.75-1.205,4.713-5.355,4.723-5.397
						c0.12-0.539,0.649-0.88,1.192-0.76c0.538,0.119,0.879,0.65,0.761,1.189c-0.047,0.216-1.218,5.314-6.064,6.872
						C1812.187,468.08,1811.297,468.213,1810.411,468.213z"/>
					<path style="fill:#84524D;" d="M1798.654,431.568c-0.808,1.799-2.249,4.311-4.845,6.338c-3.131,2.445-5.626,2.374-6.637,4.424
						c-0.677,1.375-0.743,3.811,2.511,8.432L1798.654,431.568z"/>
					<path style="fill:#363E44;" d="M1789.684,451.761c-0.314,0-0.624-0.148-0.818-0.424c-2.868-4.073-3.716-7.164-2.591-9.449
						c0.721-1.461,1.969-2.047,3.414-2.724c1.038-0.486,2.214-1.038,3.505-2.046c1.912-1.492,3.442-3.497,4.549-5.96
						c0.228-0.504,0.817-0.73,1.322-0.502c0.504,0.227,0.729,0.818,0.502,1.322c-1.241,2.763-2.972,5.022-5.143,6.717
						c-1.468,1.146-2.809,1.775-3.887,2.28c-1.353,0.634-2.076,1.002-2.469,1.797c-0.75,1.525,0.091,4.089,2.432,7.414
						c0.318,0.452,0.21,1.075-0.241,1.394C1790.083,451.702,1789.883,451.761,1789.684,451.761z"/>
					<g>
						<path style="fill:#363E44;" d="M1880.359,483.258c-4.358,0-8.562-1.117-12.147-3.393c-0.466-0.296-0.604-0.914-0.309-1.38
							c0.297-0.466,0.915-0.604,1.381-0.308c7.756,4.922,18.729,3.882,27.311-2.585c5.25-3.956,8.882-9.394,10.226-15.312
							c1.33-5.856,0.254-11.481-3.03-15.839c-5.21-6.915-15.104-9.198-24.625-5.678c-0.519,0.19-1.094-0.073-1.284-0.591
							c-0.192-0.518,0.072-1.093,0.591-1.285c10.349-3.829,21.168-1.276,26.916,6.35c3.644,4.836,4.846,11.046,3.383,17.486
							c-1.448,6.378-5.346,12.226-10.973,16.466C1892.476,481.2,1886.274,483.258,1880.359,483.258z"/>
						<path style="fill:#363E44;" d="M1888.6,470.32c-0.363,0-0.713-0.198-0.891-0.543c-0.252-0.491-0.059-1.094,0.433-1.346
							c0.719-0.369,1.417-0.807,2.075-1.303c5.265-3.967,6.861-10.76,3.56-15.142c-0.795-1.055-1.813-1.896-3.024-2.497
							c-0.495-0.246-0.697-0.846-0.451-1.34c0.246-0.494,0.845-0.697,1.34-0.451c1.493,0.741,2.749,1.779,3.733,3.085
							c3.965,5.262,2.191,13.311-3.954,17.943c-0.749,0.564-1.545,1.064-2.364,1.484
							C1888.909,470.285,1888.753,470.32,1888.6,470.32z"/>
					</g>
				</g>
				<path style="fill:#363E44;" d="M1831.571,361.231c19.887-7.413,35.272-4.558,42.892-4.086
					c-6.926-2.311-15.276-4.537-24.862-5.997c-2.923-0.445-5.765-0.789-8.513-1.047c3.181-1.365,6.56-2.554,10.15-3.499
					c10.213-2.69,21.582-4.426,32.448-2.016c19.064,4.228,32.933,22.38,37.764,27.622c-2.259-4.497-5.29-9.586-9.369-14.801
					c-2.193-2.803-4.452-5.334-6.717-7.626c10.33,3.165,19.358,7.299,25.686,14.448c2.818,3.184,4.453,6.482,6.336,11.099
					c2.1,5.151,2.817,11.253,3.457,15.367c0.234-1.633,0.515-4.025,0.634-6.922c0.048-1.19,0.138-3.431,0.082-6.061
					c2.31,3.701,4.233,7.68,5.658,11.958c10.421,31.284-4.613,53.328-22.125,62.895c-29.36-15.784-55.073-36.745-81.929-51.45
					c7.278,0.546,13.15-0.699,16.464-1.642c-17.433-2.382-27.159-4.79-32.594-6.265c-8.526-2.315-15.535-4.397-25.035-7.914
					C1804.639,380.906,1817.13,366.613,1831.571,361.231z"/>
			</g>
		</g>
		<g>
			<g>
				
					<rect x="347.589" y="573.093" transform="matrix(-1 -1.224647e-16 1.224647e-16 -1 2181.6392 2200.2512)" style="fill:#E6D0BE;" width="1486.461" height="1054.064"/>
				
					<rect x="655.598" y="358.357" transform="matrix(-1.836970e-16 1 -1 -1.836970e-16 2145.7712 -35.868)" style="fill:#FFFFFF;" width="870.443" height="1393.189"/>
				<path style="fill:#E6D0BE;" d="M934.349,1649.491h44.008c0,33.012,26.761,59.773,59.773,59.773h105.38
					c33.012,0,59.773-26.761,59.773-59.773h44.006l44.008,233.87v19.558H890.342v-19.558L934.349,1649.491z"/>
				<path style="fill:#E6D0BE;" d="M1291.297,1928.367H890.342c-0.553,0-1-0.448-1-1s0.447-1,1-1h400.955c0.553,0,1,0.448,1,1
					S1291.85,1928.367,1291.297,1928.367z"/>
				
					<ellipse transform="matrix(0.1091 -0.994 0.994 0.1091 159.8978 2668.5352)" style="fill:#FFFFFF;" cx="1568.696" cy="1245.062" rx="38.311" ry="38.311"/>
			</g>
			<g>
				<g>
					<path style="fill:#E6D0BE;" d="M884.542,1404.052H459.489c-0.553,0-1-0.448-1-1v-320.509c0-0.552,0.447-1,1-1
						c0.553,0,1,0.448,1,1v319.509h424.053c0.553,0,1,0.448,1,1S885.095,1404.052,884.542,1404.052z"/>
					<g>
						<path style="fill:#E6D0BE;" d="M772.87,1187.849c-0.341,0-0.672-0.174-0.859-0.487c-0.283-0.474-0.129-1.088,0.346-1.372
							l58.012-34.671c0.473-0.285,1.087-0.128,1.371,0.345c0.283,0.474,0.129,1.088-0.346,1.372l-58.012,34.671
							C773.222,1187.803,773.045,1187.849,772.87,1187.849z"/>
						<path style="fill:#E6D0BE;" d="M736.138,1178.579c-0.325,0-0.644-0.159-0.837-0.451l-78.599-119.658
							c-0.303-0.461-0.175-1.082,0.287-1.385c0.462-0.301,1.083-0.174,1.385,0.287l78.599,119.658
							c0.303,0.461,0.175,1.082-0.287,1.385C736.517,1178.525,736.326,1178.579,736.138,1178.579z"/>
						<path style="fill:#E6D0BE;" d="M562.241,1100.908c-0.3,0-0.596-0.134-0.792-0.389c-0.338-0.437-0.258-1.065,0.18-1.403
							l61.063-47.173c0.438-0.338,1.065-0.255,1.402,0.18c0.338,0.437,0.258,1.065-0.18,1.403l-61.063,47.173
							C562.67,1100.84,562.454,1100.908,562.241,1100.908z"/>
						<path style="fill:#E6D0BE;" d="M542.438,1141.849c-14.435,0-26.18-11.744-26.18-26.179s11.744-26.179,26.18-26.179
							c14.435,0,26.179,11.744,26.179,26.179S556.872,1141.849,542.438,1141.849z M542.438,1091.491
							c-13.333,0-24.18,10.847-24.18,24.179s10.847,24.179,24.18,24.179c13.332,0,24.179-10.847,24.179-24.179
							S555.769,1091.491,542.438,1091.491z"/>
						<path style="fill:#E6D0BE;" d="M643.953,1063.514c-14.435,0-26.179-11.744-26.179-26.179s11.744-26.179,26.179-26.179
							c14.435,0,26.179,11.744,26.179,26.179S658.388,1063.514,643.953,1063.514z M643.953,1013.156
							c-13.332,0-24.179,10.847-24.179,24.179c0,13.332,10.847,24.179,24.179,24.179c13.332,0,24.179-10.847,24.179-24.179
							C668.132,1024.002,657.285,1013.156,643.953,1013.156z"/>
						<path style="fill:#E6D0BE;" d="M750.69,1225.072c-14.435,0-26.179-11.744-26.179-26.179s11.744-26.179,26.179-26.179
							c14.435,0,26.18,11.744,26.18,26.179S765.125,1225.072,750.69,1225.072z M750.69,1174.714
							c-13.332,0-24.179,10.847-24.179,24.179c0,13.333,10.847,24.179,24.179,24.179c13.333,0,24.18-10.847,24.18-24.179
							C774.869,1185.561,764.023,1174.714,750.69,1174.714z"/>
						<path style="fill:#E6D0BE;" d="M853.014,1166.346c-14.436,0-26.18-11.744-26.18-26.179s11.744-26.179,26.18-26.179
							c14.435,0,26.179,11.744,26.179,26.179S867.448,1166.346,853.014,1166.346z M853.014,1115.987
							c-13.333,0-24.18,10.847-24.18,24.179s10.847,24.179,24.18,24.179c13.332,0,24.179-10.847,24.179-24.179
							S866.346,1115.987,853.014,1115.987z"/>
					</g>
					<rect x="512.683" y="1180.85" style="fill:#E6D0BE;" width="62.62" height="171.701"/>
					<rect x="616.022" y="1146.645" style="fill:#E6D0BE;" width="62.62" height="205.907"/>
					<rect x="719.361" y="1241.593" style="fill:#E6D0BE;" width="62.62" height="110.959"/>
					<rect x="822.7" y="1209.73" style="fill:#E6D0BE;" width="62.62" height="142.821"/>
				</g>
				<g>
					<g>
						<path style="fill:#F2E6DC;" d="M1558.184,984.764c-40.46,6.672-81.096-2.812-114.422-26.704
							c-33.327-23.891-55.355-59.331-62.027-99.791c-6.672-40.459,2.812-81.096,26.704-114.422
							c23.891-33.327,59.332-55.355,99.791-62.026c40.46-6.672,81.096,2.812,114.423,26.703
							c33.327,23.892,55.355,59.332,62.026,99.791c6.672,40.46-2.812,81.096-26.703,114.422
							C1634.084,956.064,1598.644,978.093,1558.184,984.764z M1516.117,729.651c-57.148,9.424-95.975,63.583-86.551,120.731
							c9.423,57.148,63.583,95.975,120.731,86.551c57.148-9.424,95.975-63.583,86.551-120.732
							C1627.425,759.055,1573.265,720.228,1516.117,729.651z"/>
						<path style="fill:#FFFFFF;" d="M1557.198,978.786c-38.863,6.408-77.895-2.701-109.906-25.65
							c-32.011-22.949-53.17-56.99-59.578-95.852c-6.408-38.863,2.701-77.894,25.649-109.906
							c22.949-32.011,56.99-53.17,95.852-59.578c38.863-6.408,77.895,2.701,109.906,25.649c32.011,22.949,53.17,56.99,59.578,95.852
							c6.408,38.863-2.701,77.895-25.649,109.906C1630.102,951.219,1596.061,972.377,1557.198,978.786z M1515.131,723.672
							c-60.445,9.967-101.511,67.251-91.544,127.696c9.967,60.445,67.251,101.511,127.696,91.544
							c60.445-9.967,101.512-67.251,91.544-127.696C1632.86,754.772,1575.576,713.705,1515.131,723.672z"/>
						<g>
							<path style="fill:#D87355;" d="M1543.746,722.687c46.149,4.407,85.885,37.61,97.31,83.917l35.952-5.928
								c-7.949-35.259-28.267-65.993-57.886-87.226c-22.33-16.008-48.077-25.272-74.798-27.242L1543.746,722.687z"/>
							<path style="fill:#8B865C;" d="M1643.915,823.942c4.867,57.139-35.104,109.485-92.632,118.971
								c-30.203,4.98-59.616-2.782-82.731-19.336l-23.525,27.892c0.751,0.56,1.503,1.12,2.266,1.667
								c32.011,22.949,71.043,32.058,109.906,25.65c38.863-6.408,72.904-27.567,95.852-59.578
								c21.234-29.619,30.608-65.249,26.816-101.194L1643.915,823.942z"/>
							<path style="fill:#EFBC73;" d="M1461.128,748.784c14.882-12.736,33.306-21.699,54.003-25.112
								c3.697-0.61,7.381-1.026,11.044-1.26l0.577-36.451c-5.833,0.267-11.687,0.873-17.537,1.838
								c-27.895,4.6-53.306,16.8-73.913,35.158L1461.128,748.784z"/>
							<path style="fill:#F7F1EB;" d="M1413.364,747.378c-22.949,32.011-32.058,71.043-25.649,109.906
								c5.292,32.092,20.65,60.889,43.864,82.874l23.537-27.906c-16.132-15.913-27.568-36.865-31.529-60.883
								c-5.53-33.534,4.655-66.091,25.135-90.139l-25.816-25.817C1419.547,739.212,1416.359,743.2,1413.364,747.378z"/>
						</g>
					</g>
					<g>
						<path style="fill:#8B865C;" d="M1532.75,870.292c-20.401,0-36.999-16.598-36.999-37c0-20.401,16.598-36.999,36.999-36.999
							s36.999,16.598,36.999,36.999C1569.749,853.694,1553.151,870.292,1532.75,870.292z M1532.75,798.294
							c-19.299,0-34.999,15.701-34.999,34.999c0,19.299,15.7,35,34.999,35s34.999-15.701,34.999-35
							C1567.749,813.994,1552.049,798.294,1532.75,798.294z"/>
					</g>
				</g>
				<g>
					<g>
						<path style="fill:#F2E6DC;" d="M1323.224,818.8c3.871,40.823-8.387,80.71-34.516,112.313
							c-26.129,31.603-63.001,51.14-103.824,55.011c-40.823,3.871-80.71-8.387-112.313-34.516
							c-31.604-26.129-51.14-63.001-55.011-103.823c-3.871-40.823,8.387-80.71,34.516-112.313
							c26.129-31.604,63.001-51.14,103.824-55.011c40.823-3.871,80.71,8.387,112.313,34.516
							C1299.817,741.105,1319.353,777.977,1323.224,818.8z M1065.821,843.209c5.468,57.661,56.827,100.123,114.488,94.656
							c57.661-5.468,100.124-56.827,94.656-114.488c-5.468-57.661-56.827-100.124-114.488-94.656
							C1102.815,734.188,1060.353,785.548,1065.821,843.209z"/>
						<path style="fill:#FFFFFF;" d="M1317.192,819.372c3.718,39.211-8.056,77.524-33.153,107.88
							c-25.097,30.356-60.514,49.122-99.726,52.84c-39.212,3.718-77.524-8.056-107.88-33.153
							c-30.356-25.097-49.121-60.514-52.84-99.725c-3.718-39.212,8.056-77.524,33.153-107.88
							c25.098-30.356,60.514-49.121,99.725-52.84c39.212-3.718,77.524,8.056,107.88,33.153
							C1294.708,744.744,1313.474,780.16,1317.192,819.372z M1059.788,843.781c5.783,60.987,60.105,105.899,121.093,100.116
							c60.988-5.783,105.899-60.105,100.116-121.092c-5.783-60.988-60.105-105.9-121.093-100.116
							C1098.917,728.471,1054.005,782.793,1059.788,843.781z"/>
						<g>
							<path style="fill:#D87355;" d="M1060.774,815.166c7.573-45.736,43.432-83.093,90.416-91.303l-3.44-36.275
								c-35.722,5.503-67.782,23.658-91.003,51.745c-17.507,21.175-28.521,46.224-32.326,72.746L1060.774,815.166z"/>
							<path style="fill:#EFBC73;" d="M1168.684,722.204c57.339-0.923,106.809,42.557,112.313,100.6
								c2.89,30.474-6.878,59.283-24.984,81.204l26.207,25.389c0.611-0.711,1.22-1.422,1.819-2.146
								c25.098-30.356,36.871-68.668,33.153-107.88c-3.718-39.212-22.484-74.628-52.84-99.726
								c-28.087-23.222-62.987-35.027-99.108-33.717L1168.684,722.204z"/>
							<path style="fill:#8B865C;" d="M1081.124,899.384c-11.681-15.723-19.355-34.72-21.335-55.603
								c-0.354-3.73-0.515-7.434-0.497-11.105l-36.324-3.085c-0.135,5.838,0.067,11.719,0.627,17.622
								c2.669,28.146,13.092,54.335,29.988,76.158L1081.124,899.384z"/>
							<path style="fill:#E6D0BE;" d="M1076.433,946.938c30.356,25.098,68.668,36.872,107.88,33.153
								c32.38-3.07,62.166-16.41,85.697-38.056l-26.22-25.402c-16.985,14.998-38.675,24.966-62.909,27.264
								c-33.835,3.208-65.613-9.193-88.195-31.279l-27.533,23.978C1068.712,940.208,1072.471,943.663,1076.433,946.938z"/>
						</g>
					</g>
					<g>
						<path style="fill:#8B865C;" d="M1170.388,870.748c-0.854,0-1.709-0.029-2.572-0.089c-9.86-0.68-18.864-5.159-25.355-12.611
							c-6.49-7.453-9.69-16.987-9.011-26.846c0.681-9.859,5.159-18.864,12.612-25.354c7.453-6.491,16.99-9.689,26.846-9.011
							c20.354,1.404,35.77,19.105,34.366,39.458C1205.928,855.785,1189.638,870.748,1170.388,870.748z M1170.31,798.747
							c-8.442,0-16.507,3.01-22.935,8.608c-7.05,6.14-11.287,14.658-11.93,23.984c-0.644,9.326,2.384,18.345,8.523,25.395
							c6.14,7.049,14.657,11.286,23.983,11.93c19.252,1.316,35.996-13.254,37.325-32.507c1.328-19.252-13.255-35.997-32.507-37.325
							C1171.947,798.775,1171.126,798.747,1170.31,798.747z"/>
					</g>
				</g>
				<g>
					<path style="fill:#E6D0BE;" d="M928.799,901.89H454.131c-0.553,0-1-0.448-1-1V778.746c0-0.552,0.447-1,1-1h474.668
						c0.553,0,1,0.448,1,1V900.89C929.799,901.442,929.352,901.89,928.799,901.89z M455.131,899.89h472.668V779.746H455.131V899.89z
						"/>
					<g>
						<path style="fill:#E6D0BE;" d="M870.122,738.553c-20.243-6.135-22.639-36.052-39.524-35.626
							c-41.809,1.055-60.791,131.552-92.499,129.829c-26.175-1.423-30.461-91.286-60.773-94.203
							c-32.354-3.113-55.168,96.601-90.111,94.203c-30.683-2.106-29.459-80.114-83.824-106.229
							c-9.134-4.388-18.705-6.762-28.303-7.703v156.812h432.756V727.998C891.511,739.219,879.356,741.352,870.122,738.553z"/>
					</g>
				</g>
				<g>
					<rect x="1015.917" y="1056.85" style="fill:#E6D0BE;" width="675.628" height="357.045"/>
					<path style="fill:#FFFFFF;" d="M1337.859,1182.783c-0.256,0-0.512-0.098-0.707-0.293l-32.579-32.58
						c-0.391-0.391-0.391-1.023,0-1.414l32.579-32.579c0.391-0.391,1.023-0.391,1.414,0s0.391,1.023,0,1.414l-31.872,31.872
						l31.872,31.873c0.391,0.391,0.391,1.023,0,1.414C1338.371,1182.686,1338.115,1182.783,1337.859,1182.783z"/>
					<path style="fill:#FFFFFF;" d="M1391.227,1182.783c-0.256,0-0.512-0.098-0.707-0.293c-0.391-0.391-0.391-1.023,0-1.414
						l31.872-31.873l-31.872-31.872c-0.391-0.391-0.391-1.023,0-1.414s1.023-0.391,1.414,0l32.579,32.579
						c0.391,0.391,0.391,1.023,0,1.414l-32.579,32.58C1391.738,1182.686,1391.482,1182.783,1391.227,1182.783z"/>
					<path style="fill:#FFFFFF;" d="M1350.603,1180.776c-0.139,0-0.28-0.029-0.416-0.091c-0.502-0.23-0.723-0.824-0.492-1.326
						l28.12-61.374c0.23-0.501,0.823-0.724,1.326-0.493c0.502,0.23,0.723,0.824,0.492,1.326l-28.12,61.374
						C1351.345,1180.56,1350.981,1180.776,1350.603,1180.776z"/>
					<rect x="1494.762" y="1107.644" style="fill:#F2E6DC;" width="137.949" height="84.624"/>
					<path style="fill:#FFFFFF;" d="M1442.998,1232.119h-353.312c-0.553,0-1-0.448-1-1s0.447-1,1-1h353.312c0.553,0,1,0.448,1,1
						S1443.551,1232.119,1442.998,1232.119z"/>
					<path style="fill:#FFFFFF;" d="M1646.337,1267.701h-310.773c-0.553,0-1-0.448-1-1s0.447-1,1-1h310.773c0.553,0,1,0.448,1,1
						S1646.89,1267.701,1646.337,1267.701z"/>
					<path style="fill:#FFFFFF;" d="M1267.784,1267.701h-178.098c-0.553,0-1-0.448-1-1s0.447-1,1-1h178.098c0.553,0,1,0.448,1,1
						S1268.337,1267.701,1267.784,1267.701z"/>
					<path style="fill:#FFFFFF;" d="M1646.337,1303.283h-156.2c-0.553,0-1-0.448-1-1s0.447-1,1-1h156.2c0.553,0,1,0.448,1,1
						S1646.89,1303.283,1646.337,1303.283z"/>
					<path style="fill:#FFFFFF;" d="M1422.357,1303.283h-332.671c-0.553,0-1-0.448-1-1s0.447-1,1-1h332.671c0.553,0,1,0.448,1,1
						S1422.91,1303.283,1422.357,1303.283z"/>
					<path style="fill:#FFFFFF;" d="M1544.667,1338.866h-454.98c-0.553,0-1-0.448-1-1s0.447-1,1-1h454.98c0.553,0,1,0.448,1,1
						S1545.22,1338.866,1544.667,1338.866z"/>
					<rect x="1088.442" y="1107.644" style="fill:#F2E6DC;" width="158.974" height="84.624"/>
				</g>
			</g>
		</g>
		<g>
			<path style="fill:#84524D;" d="M1721.506,688.351c14.228-5.086,69.992-35.715,94.512-19.058
				c24.695,16.776,33.904,48.447,32.646,78.262c-0.087,0.085-0.183,0.179-0.269,0.263c-3.782,7.346-10.568,17.756-22.434,24.56
				c-13.528,7.755-20.702,3.396-36.253,9.359c-26.247,10.065-31.423,33.119-40.346,28.696c-6.124-3.035-3.69-16.6,1.751-28.394
				c5.586-12.11,14.299-17.591,13.001-19.348c-1.424-1.929-9.555,4.784-20.431,12.204c-5.053,3.447-13.097,21.452-22.075,18.537
				c-7.158-2.324-3.484-23.133,8.807-36.877c8.696-9.723,21.249-11.409,20.469-13.659c-0.585-1.688-8.041-0.499-14.161,2.439
				c-10.1,4.846-18.526,23.179-26.738,20.335c-8.045-2.786-4.516-20.904,5.988-34.26c8.856-11.262,22.945-12.474,21.992-15.275
				c-0.67-1.971-7.091-2.738-20.409-0.284c-11.116,2.05-31.412,13.198-35.295,1.893
				C1678.995,708.236,1700.032,696.026,1721.506,688.351z"/>
			<path style="fill:#84524D;" d="M2084.558,714.098c31.102,12.039,51.344,43.005,48.557,76.22
				c-1.827,21.776-13.578,43.76-48.196,55.662c-84.288,28.979-263.363-98.772-263.363-98.772l-19.518-82.584
				C1897.527,664.536,1998.948,680.961,2084.558,714.098z"/>
		</g>
		<g>
			<g>
				<path style="fill:#363E44;" d="M1574.597,1418.623c-1.414,0-2.799-0.235-4.129-0.711c-4.286-1.533-7.434-5.363-8.861-10.785
					c-1.394-5.287-0.983-11.487,1.152-17.46s5.751-11.026,10.181-14.231c4.542-3.287,9.403-4.251,13.691-2.719
					c4.286,1.533,7.434,5.363,8.862,10.784c1.393,5.287,0.983,11.487-1.152,17.46c-2.136,5.973-5.752,11.027-10.182,14.231
					C1581.026,1417.459,1577.74,1418.622,1574.597,1418.623z M1582.51,1374.01c-2.729,0-5.615,1.034-8.398,3.047
					c-4.105,2.97-7.469,7.688-9.47,13.284c0,0,0,0,0,0c-2.001,5.596-2.393,11.376-1.102,16.277c1.255,4.765,3.955,8.107,7.602,9.411
					s7.854,0.432,11.846-2.457c4.105-2.97,7.469-7.688,9.471-13.284c2.001-5.596,2.393-11.377,1.102-16.277
					c-1.256-4.765-3.956-8.107-7.603-9.411C1584.853,1374.205,1583.695,1374.01,1582.51,1374.01z M1563.7,1390.004h0.01H1563.7z"/>
				<path style="fill:#BC8271;" d="M1584.874,1393.222c12.046-33.783,22.046-52.413,41.856-61.697
					c26.624-12.477,55.157,2.818,58.112,4.459c1.886,1.048,29.602,14.332,34.215,44.913c4.556,30.2-7.04,61.759-31.168,80.031
					v67.473c0,21.661-17.56,39.222-39.222,39.222h-4.906c-21.661,0-39.222-17.56-39.222-39.222v-45.073
					c-13.741-1.15-24.613-5.132-28.97-12.092C1567.765,1458.769,1570.688,1433.006,1584.874,1393.222z"/>
				<path style="fill:#363E44;" d="M1603.388,1405.016c-0.165,0-0.333-0.041-0.487-0.127l-36.096-20.208
					c-0.482-0.27-0.654-0.879-0.385-1.361c0.271-0.482,0.877-0.655,1.361-0.384l36.096,20.208c0.482,0.27,0.654,0.879,0.385,1.361
					C1604.078,1404.832,1603.738,1405.016,1603.388,1405.016z"/>
				<path style="fill:#363E44;" d="M1603.922,1483.261c-0.01,0-0.019,0-0.027,0c-0.553-0.015-0.988-0.474-0.974-1.026l0.438-16.501
					c0.015-0.543,0.46-0.973,0.999-0.973c0.01,0,0.019,0,0.027,0c0.553,0.015,0.988,0.474,0.974,1.026l-0.438,16.501
					C1604.906,1482.831,1604.461,1483.261,1603.922,1483.261z"/>
				<path style="fill:#363E44;" d="M1610.101,1422.5c-0.241,0-0.483-0.087-0.675-0.262c-0.408-0.373-0.436-1.005-0.063-1.413
					c1.869-2.043,3.522-3.917,5.273-5.9c1.426-1.616,2.896-3.283,4.56-5.125c0.37-0.411,1.003-0.442,1.412-0.072
					c0.41,0.37,0.442,1.002,0.072,1.412c-1.657,1.836-3.123,3.498-4.545,5.108c-1.756,1.991-3.415,3.871-5.298,5.927
					C1610.641,1422.391,1610.371,1422.5,1610.101,1422.5z"/>
				<path style="fill:#363E44;" d="M1611.904,1317.451c-2.97,2.106-9.102,6.559-13.507,14.681
					c-15.688,28.926,11.173,66.345,12.919,68.711c-2.665-4.851-7.688-15.531-7.634-29.951c0.056-14.844,5.46-22.472,8.222-27.276
					c-0.32,7.985,0.288,19.839,9.396,34.322c15.349,24.409,36.711,35.933,54.747,41.463c16.501,5.06,45.386,6.113,56.248-9.772
					c16.248-23.763-0.745-61.512-24.078-81.608C1680.857,1304.458,1637.143,1299.547,1611.904,1317.451z"/>
				<circle style="fill:#363E44;" cx="1749.289" cy="1349.264" r="24.362"/>
				<path style="fill:#363E44;" d="M1754.911,1381.063c-4.659,0-9.694-1.211-14.481-3.733c-5.945-3.132-10.639-7.801-13.217-13.146
					c-2.627-5.446-2.756-10.948-0.362-15.491s7.003-7.548,12.981-8.461c5.862-0.896,12.371,0.335,18.315,3.467
					c12.373,6.519,18.465,19.365,13.58,28.637C1768.732,1378.021,1762.295,1381.063,1754.911,1381.063z M1743.662,1341.946
					c-1.197,0-2.377,0.087-3.528,0.263c-5.335,0.815-9.424,3.449-11.514,7.417c-2.091,3.967-1.95,8.829,0.394,13.69
					c2.394,4.962,6.779,9.311,12.348,12.245c11.397,6.005,24.226,4.139,28.597-4.156c4.37-8.296-1.346-19.931-12.742-25.936
					C1752.824,1343.155,1748.124,1341.946,1743.662,1341.946z M1727.735,1349.159h0.01H1727.735z"/>
				<path style="fill:#363E44;" d="M1624.917,1434.783c-0.336,0-0.663-0.169-0.853-0.476c-0.289-0.47-0.144-1.086,0.327-1.376
					c8.98-5.534,13.5-15.564,10.991-24.39c-1.786-6.282-7.337-13.226-15.301-13.627c-6.355-0.319-12.525,3.44-15.812,9.574
					c-0.262,0.487-0.866,0.669-1.354,0.409c-0.486-0.261-0.67-0.867-0.409-1.354c3.649-6.812,10.59-10.978,17.675-10.626
					c8.948,0.45,15.149,8.131,17.125,15.077c2.753,9.683-2.127,20.638-11.866,26.64
					C1625.277,1434.735,1625.096,1434.783,1624.917,1434.783z"/>
			</g>
			<g>
				<path style="fill:#363E44;" d="M1490.049,1857.706c-16.083,40.925-31.882,83.575-47.184,127.919
					c-20.641,59.815-38.668,117.758-54.442,173.479c76.219,0,152.439,0,228.659,0c9.679-15.771,19.357-31.542,29.036-47.312
					c4.839,18.691,6.894,27.97,11.733,46.661c70.545,0,143.873,0,214.418,0c-3.88-61.511-12.994-122.719-31.519-199.551
					c-10.438-43.289-22.576-83.219-35.387-119.595C1700.258,1845.44,1595.154,1851.573,1490.049,1857.706z"/>
				<path style="fill:#40484C;" d="M1612.387,1974.676l-119.715-10.503l-5.148,58.674c-2.9,33.058,21.548,62.208,54.606,65.109
					c33.058,2.9,62.208-21.548,65.109-54.606L1612.387,1974.676z"/>
			</g>
			<g>
				<g>
					<path style="fill:#BC8271;" d="M1393.452,1567.623c-13.163,2.788-24.44-5.246-36.49-2.379
						c-128.13,30.488-192.56,65.985-177.01,118.047c9.869,33.041,101.752,49.323,223.933,30.13
						C1401.184,1664.029,1398.043,1627.309,1393.452,1567.623z"/>
					<path style="fill:#BC8271;" d="M1927.745,1600.867c156.882,112.776,228.784,190.976,185.467,238.32
						c-25.128,27.464-137.649-2.507-265.682-85.878C1871.654,1705.901,1897.111,1657.455,1927.745,1600.867z"/>
					<g>
						<path style="fill:#FFFFFF;" d="M1971.944,1605.239c0,0-152.451-78.72-298.331-83.977
							c-124.334-4.48-316.658,43.954-316.658,43.954l-1.825,194.799l75.349,8.762l-15.771,143.69l448.592,22.78l8.762-126.13
							l48.627,10.477L1971.944,1605.239z"/>
					</g>
				</g>
				<g>
					<path style="fill:#BC8271;" d="M1320.083,1626.401c2.362-38.438,3.943-126.167,1.314-193.192
						c-2.76-70.391-17.085-173.917-31.542-171.727c-8.234,1.248-9.2,15.771-9.2,54.76c-1.971-1.971-8.761-6.571-16.209-4.162
						c-11.022,3.566-11.243,13.368-11.609,14.238c-0.615-0.722-7.447-8.323-15.229-7.186c-8.765,1.282-13.684,7.186-15.479,13.903
						c-1.58-1.746-8.062-7.593-15.509-6.279c-7.66,1.352-14.676,8.323-14.238,16.428c0.804,14.868,4.038,59.007,2.994,80.679
						c-2.054,42.648-29.678,193.121-16.355,255.546C1226.189,1650.641,1272.917,1655.168,1320.083,1626.401z"/>
					<path style="fill:#363E44;" d="M1234,1607.722c-0.369,0-0.725-0.205-0.898-0.559c-0.243-0.496-0.039-1.095,0.456-1.339
						c22.544-11.087,51.666-21.406,89.029-31.547c0.529-0.145,1.081,0.169,1.227,0.703c0.145,0.533-0.17,1.082-0.703,1.227
						c-37.238,10.107-66.242,20.382-88.67,31.412C1234.299,1607.689,1234.147,1607.722,1234,1607.722z"/>
					<path style="fill:#363E44;" d="M1294.059,1339.338c-0.466,0-0.882-0.327-0.979-0.8c-0.11-0.541,0.238-1.069,0.779-1.18
						l11.558-2.356c0.543-0.108,1.069,0.239,1.18,0.78s-0.238,1.069-0.779,1.18l-11.558,2.356
						C1294.192,1339.332,1294.125,1339.338,1294.059,1339.338z"/>
					<path style="fill:#363E44;" d="M1264.722,1345.273c-0.466,0-0.882-0.327-0.979-0.8c-0.11-0.541,0.238-1.069,0.779-1.18
						l11.558-2.356c0.537-0.111,1.069,0.239,1.18,0.78c0.11,0.541-0.238,1.069-0.779,1.18l-11.558,2.356
						C1264.855,1345.267,1264.788,1345.273,1264.722,1345.273z"/>
					<path style="fill:#363E44;" d="M1234.783,1350.988c-0.466,0-0.882-0.327-0.979-0.8c-0.11-0.541,0.238-1.069,0.78-1.18
						l11.557-2.355c0.538-0.108,1.069,0.239,1.18,0.78s-0.238,1.069-0.779,1.18l-11.559,2.355
						C1234.917,1350.982,1234.85,1350.988,1234.783,1350.988z"/>
					<path style="fill:#363E44;" d="M1207.738,1356.731c-0.466,0-0.882-0.327-0.979-0.8c-0.11-0.541,0.238-1.069,0.779-1.18
						l11.559-2.356c0.54-0.11,1.069,0.239,1.18,0.78s-0.238,1.069-0.779,1.18l-11.559,2.356
						C1207.872,1356.725,1207.805,1356.731,1207.738,1356.731z"/>
				</g>
				<polygon style="fill:#D87355;" points="1768.808,1911.799 1936.819,2004.941 1942.561,1994.583 2020.281,1993.231 
					2060.312,2059.862 2050.93,2076.786 1982.955,2039.102 1964.031,2073.239 2032.005,2110.923 2022.623,2127.846 
					1944.903,2129.198 1904.872,2062.567 1910.614,2052.209 1742.603,1959.068 1736.861,1969.426 1659.141,1970.778 
					1619.11,1904.147 1628.492,1887.223 1696.467,1924.907 1715.391,1890.77 1647.416,1853.086 1656.799,1836.163 
					1734.519,1834.811 1774.55,1901.442 				"/>
				<g>
					<path style="fill:#BC8271;" d="M2036.875,1711.403c-0.003-0.003-0.008-0.003-0.01,0
						c-112.401,86.225-193.801,145.245-218.215,164.453c-2.557,2.011-7.085,5.541-11.508,11.553
						c-16.388,22.274-1.599,43.851-11.605,74.205c-7.469,22.66-21.746,30.449-17.848,42.531c1.978,6.131,14.145,14.409,24.454,3.364
						c0.001-0.001,0.004,0.001,0.003,0.003c-5.516,5.643-11.994,11.945-5.082,18.702c8.399,7.375,19.844,2.28,25.564-4.826
						c-5.152,6.402-2.353,14.193,3.495,15.434c8.552,1.814,19.249-5.732,23.344-9.971c0.001-0.001,0.002,0,0.002,0.001
						c-2.744,5.561-1.964,12.597,2.878,14.045c8.84,2.644,17.112-3.659,28.282-20.284c12.576-18.716,15.836-37.594,17.608-49.546
						c0.001-0.003,0.002-0.006,0.005-0.008c84.985-52.228,140.837-87.243,210.333-128.027
						C2122.793,1834.686,2075.208,1747.671,2036.875,1711.403z"/>
					<path style="fill:#363E44;" d="M1927.265,1796.827c-0.305,0-0.604-0.138-0.801-0.4c-0.332-0.442-0.242-1.069,0.2-1.4
						c33.985-25.466,65.568-49.364,96.555-73.057c0.44-0.335,1.066-0.251,1.401,0.187c0.336,0.439,0.252,1.066-0.187,1.402
						c-30.991,23.697-62.58,47.598-96.57,73.069C1927.684,1796.762,1927.473,1796.827,1927.265,1796.827z"/>
					<path style="fill:#363E44;" d="M1802.62,2007.975c-0.243,0-0.486-0.088-0.679-0.266c-0.405-0.375-0.431-1.008-0.056-1.413
						c3.228-3.491,5.977-7.398,8.171-11.611c2.122-4.074,3.714-8.415,4.73-12.902c0.122-0.538,0.66-0.877,1.196-0.754
						c0.539,0.122,0.877,0.658,0.755,1.196c-1.055,4.654-2.706,9.157-4.908,13.383c-2.275,4.371-5.128,8.423-8.476,12.045
						C1803.157,2007.867,1802.889,2007.975,1802.62,2007.975z"/>
					<path style="fill:#363E44;" d="M1821.586,2022.054c-0.278,0-0.555-0.116-0.753-0.342c-0.363-0.416-0.321-1.047,0.095-1.411
						c4.16-3.639,7.811-7.81,10.849-12.396c2.938-4.433,5.288-9.236,6.987-14.276c0.177-0.523,0.747-0.804,1.267-0.628
						c0.523,0.177,0.805,0.744,0.628,1.267c-1.754,5.204-4.182,10.164-7.214,14.742c-3.137,4.735-6.905,9.041-11.2,12.798
						C1822.055,2021.973,1821.82,2022.054,1821.586,2022.054z"/>
					<path style="fill:#363E44;" d="M1849.434,2027.211c-0.232,0-0.466-0.081-0.655-0.244c-0.417-0.362-0.462-0.994-0.101-1.411
						c3.863-4.458,7.112-9.405,9.656-14.704c2.462-5.125,4.253-10.559,5.323-16.148c0.104-0.543,0.63-0.899,1.171-0.794
						c0.542,0.104,0.897,0.627,0.794,1.17c-1.104,5.759-2.949,11.357-5.485,16.638c-2.621,5.459-5.968,10.555-9.947,15.147
						C1849.991,2027.095,1849.713,2027.211,1849.434,2027.211z"/>
				</g>
			</g>
		</g>
		<g>
			<g>
				<g>
					<polygon style="fill:#9E6C5A;" points="675.811,2099.724 545.773,2099.724 518.481,1755.184 680.36,1755.184 					"/>
					<g>
						<path style="fill:#E6D0BE;" d="M767.635,2144.51H540.905v-103.732h122.997C721.192,2040.777,767.635,2087.22,767.635,2144.51z
							"/>
						<path style="fill:#363E44;" d="M662.245,2062.441c-0.256,0-0.512-0.098-0.707-0.293c-0.391-0.391-0.391-1.023,0-1.414
							l20.006-20.005c0.391-0.391,1.023-0.391,1.414,0c0.391,0.391,0.391,1.023,0,1.414l-20.006,20.005
							C662.757,2062.344,662.501,2062.441,662.245,2062.441z"/>
						<path style="fill:#363E44;" d="M684.988,2069.264c-0.256,0-0.512-0.098-0.707-0.293c-0.391-0.391-0.391-1.023,0-1.414
							l20.006-20.005c0.391-0.391,1.023-0.391,1.414,0c0.391,0.391,0.391,1.023,0,1.414l-20.006,20.005
							C685.5,2069.167,685.244,2069.264,684.988,2069.264z"/>
					</g>
				</g>
				<g>
					<polygon style="fill:#9E6C5A;" points="1000.466,2056.617 874.731,2078.768 799.995,1784.425 959.551,1757.1 					"/>
					<g>
						<path style="fill:#FFFFFF;" d="M1091.619,2144.51H864.89v-103.732h122.997
							C1045.176,2040.777,1091.619,2087.22,1091.619,2144.51z"/>
						<path style="fill:#363E44;" d="M986.229,2062.441c-0.256,0-0.512-0.098-0.707-0.293c-0.391-0.391-0.391-1.023,0-1.414
							l20.006-20.005c0.391-0.391,1.023-0.391,1.414,0c0.391,0.391,0.391,1.023,0,1.414l-20.006,20.005
							C986.741,2062.344,986.485,2062.441,986.229,2062.441z"/>
						<path style="fill:#363E44;" d="M1008.973,2069.264c-0.256,0-0.512-0.098-0.707-0.293c-0.391-0.391-0.391-1.023,0-1.414
							l20.006-20.005c0.391-0.391,1.023-0.391,1.414,0s0.391,1.023,0,1.414l-20.006,20.005
							C1009.484,2069.167,1009.229,2069.264,1008.973,2069.264z"/>
					</g>
				</g>
				<path style="fill:#363E44;" d="M526.958,1190.84c-33.547,89.442-50.386,190.569-56.469,290.479
					c-11.529,189.377,25.986,383.048,49.058,516.7c55.576,0,111.152,0,166.728,0c5.182-138.557,14.914-277.114,20.096-415.671
					c43.716,137.816,82.883,275.632,126.599,413.448c59.281,0,118.559,0,177.839,0c-7.762-128.639-29.67-290.813-84.482-471.242
					c-40.544-133.462-90.081-247.251-137.815-340.095C689.808,1186.181,615.714,1190.257,526.958,1190.84z"/>
			</g>
			<g>
				<g>
					<path style="fill:#9E6C5A;" d="M842.821,956.473c109.787,45.578,163.37,84.28,142.723,124.425
						c-11.977,23.288-89.864,19.347-178.395-12.026C816.057,1032.378,831.066,1000.388,842.821,956.473z"/>
					<path style="fill:#9E6C5A;" d="M482.94,953.265c-40.866,43.674-166.153,163.024-118.202,211.619
						c39.663,40.196,156.83-81.065,200.088-121.995C537.531,1013.014,510.236,983.14,482.94,953.265z"/>
					<path style="fill:#EFBC73;" d="M449.765,945.11c0,0,109.413-52.016,209.857-43.048
						c100.445,8.968,198.647,48.429,198.647,48.429l-47.98,121.968l14.349,153.669l-355.143-34.285l26.905-111.761L449.765,945.11z"
						/>
				</g>
				<g>
					<path style="fill:#9E6C5A;" d="M876.206,1052.053c-0.003-0.001-0.004-0.005-0.003-0.007
						c39.319-100.141,65.295-171.944,74.185-193.795c0.931-2.288,2.556-6.335,6.014-10.825
						c12.813-16.638,30.262-12.708,51.718-24.055c24.345-12.875,30.765-33.908,37.285-31.271c4.536,1.834,4.348,10.449-2.404,26.453
						c0,0.001,0.002,0.003,0.003,0.001c6.527-11.569,16.064-26.873,22.447-23.247c7.146,4.581-1.947,23.877-8.019,35.281
						c7.349-13.804,15.387-18.945,18.442-16.037c4.809,4.578,1.603,16.609-8.818,34.476c0,0.001,0,0.002,0.001,0.001
						c10.641-10.326,14.762-11.246,16.836-8.016c3.786,5.896-5.057,20.424-14.844,32.068c-11.017,13.109-24.11,19.453-32.46,23.257
						c-0.002,0.001-0.004,0.003-0.005,0.005c-20.266,72.992-33.203,119.957-48.371,179.241
						c-3.103,12.129-15.933,18.996-27.751,14.864C928.514,1079.273,910.726,1072.411,876.206,1052.053z"/>
					<path style="fill:#363E44;" d="M890.494,1016.402c-0.12,0-0.242-0.022-0.361-0.068c-0.515-0.2-0.771-0.779-0.571-1.294
						c4.289-11.071,8.38-21.698,12.268-31.844c0.197-0.516,0.779-0.774,1.291-0.576c0.516,0.197,0.774,0.776,0.576,1.292
						c-3.888,10.148-7.98,20.777-12.269,31.851C891.273,1016.159,890.894,1016.402,890.494,1016.402z"/>
					<path style="fill:#9E6C5A;" d="M990.868,838.369c8.317-25.95,5.818-37.072,1.663-38.259
						c-6.987-1.996-23.156,17.252-40.089,53.646C963.532,850.429,979.778,841.696,990.868,838.369z"/>
					<path style="fill:#363E44;" d="M994.527,884.615c-0.1,0-0.203-0.016-0.304-0.048c-0.526-0.168-0.816-0.73-0.649-1.256
						c1.513-4.742,4.76-11.559,11.637-17.109c9.727-7.852,20.696-8.118,24.973-7.872c0.551,0.032,0.972,0.505,0.939,1.057
						c-0.031,0.551-0.493,0.97-1.057,0.94c-4.029-0.235-14.414,0.018-23.6,7.432c-6.491,5.239-9.558,11.68-10.986,16.16
						C995.345,884.344,994.951,884.615,994.527,884.615z"/>
					<path style="fill:#363E44;" d="M967.417,839.961c-0.354,0-0.696-0.188-0.878-0.52c-0.266-0.485-0.088-1.092,0.396-1.357
						c5.328-2.917,11.215-4.493,17.446-6.162c2.901-0.776,5.9-1.58,9.001-2.556c0.527-0.163,1.087,0.127,1.254,0.654
						c0.166,0.527-0.127,1.088-0.654,1.254c-3.141,0.989-6.162,1.797-9.083,2.58c-6.112,1.637-11.887,3.183-17.003,5.984
						C967.744,839.922,967.579,839.961,967.417,839.961z"/>
					<path style="fill:#363E44;" d="M1024.581,836.153c-0.345,0-0.68-0.178-0.865-0.497c-0.278-0.478-0.116-1.09,0.361-1.367
						c2.817-1.639,5.49-3.543,7.945-5.66c3.567-3.076,6.716-6.628,9.36-10.558c0.31-0.459,0.931-0.579,1.389-0.271
						c0.458,0.308,0.579,0.93,0.271,1.388c-2.744,4.078-6.013,7.764-9.714,10.956c-2.549,2.197-5.322,4.173-8.246,5.873
						C1024.925,836.109,1024.752,836.153,1024.581,836.153z"/>
					<path style="fill:#363E44;" d="M1039.898,846.365c-0.345,0-0.68-0.178-0.865-0.497c-0.278-0.478-0.116-1.089,0.361-1.367
						c2.815-1.636,5.488-3.54,7.945-5.659c3.566-3.075,6.715-6.627,9.36-10.558c0.31-0.459,0.93-0.579,1.389-0.271
						c0.458,0.308,0.579,0.93,0.271,1.388c-2.745,4.079-6.014,7.765-9.714,10.956c-2.551,2.199-5.325,4.176-8.246,5.874
						C1040.242,846.321,1040.069,846.365,1039.898,846.365z"/>
					<path style="fill:#363E44;" d="M1049.089,866.788c-0.345,0-0.68-0.178-0.865-0.498c-0.278-0.478-0.116-1.089,0.361-1.367
						c2.815-1.636,5.488-3.54,7.945-5.659c3.566-3.075,6.715-6.627,9.36-10.558c0.31-0.459,0.931-0.579,1.389-0.271
						c0.458,0.308,0.579,0.93,0.271,1.388c-2.745,4.079-6.014,7.765-9.714,10.956c-2.551,2.199-5.325,4.176-8.246,5.874
						C1049.433,866.745,1049.26,866.788,1049.089,866.788z"/>
				</g>
			</g>
			<g>
				<path style="fill:#9E6C5A;" d="M629.568,730.683c2.535-1.339,26.999-13.8,49.352-2.748c16.633,8.224,24.78,24.198,34.394,53.056
					c11.322,33.984,13.342,55.881,6.503,66.313c-10.806,16.482-65.331,11.914-94.123-10c-20.782-15.818-30.402-43.229-25.935-69.148
					C604.215,742.309,627.951,731.538,629.568,730.683z"/>
				<path style="fill:#9E6C5A;" d="M662.153,953.224h-2.333c-16.86,0-30.528-13.668-30.528-30.528v-94.078
					c0-16.86,13.668-30.528,30.528-30.528h2.333c16.86,0,30.528,13.668,30.528,30.528v94.078
					C692.681,939.556,679.013,953.224,662.153,953.224z"/>
				<path style="fill:#363E44;" d="M689.748,858.216c-19.396,0-46.244-6.101-64.659-20.117c-0.44-0.335-0.524-0.962-0.191-1.401
					c0.335-0.439,0.961-0.525,1.401-0.19c18.767,14.284,46.528,20.171,65.691,19.68c0.515-0.045,1.011,0.421,1.025,0.974
					c0.014,0.552-0.422,1.011-0.975,1.025C691.29,858.206,690.525,858.216,689.748,858.216z"/>
				<g>
					
						<ellipse transform="matrix(0.9498 -0.3128 0.3128 0.9498 -203.6799 210.5052)" style="fill:#363E44;" cx="554.325" cy="740.143" rx="49.923" ry="49.923"/>
					<path style="fill:#363E44;" d="M537.967,795.986c-21.616,0-39.587-9.724-43.823-25.56
						c-5.499-20.559,14.204-43.753,43.922-51.703c29.723-7.951,58.37,2.308,63.871,22.868c2.684,10.029-0.456,20.945-8.839,30.737
						c-8.293,9.686-20.752,17.132-35.083,20.966C551.187,795.121,544.413,795.986,537.967,795.986z M558.192,718.019
						c-6.298,0-12.922,0.847-19.609,2.636c-28.653,7.665-47.722,29.76-42.508,49.254c5.215,19.494,32.77,29.116,61.422,21.453
						c13.945-3.731,26.049-10.953,34.081-20.334c7.941-9.276,10.935-19.547,8.427-28.92
						C596.007,727.164,578.878,718.019,558.192,718.019z"/>
					<path style="fill:#363E44;" d="M541.166,808.551c-7.469,0.001-14.316-2.167-19.72-6.729
						c-16.26-13.73-13.343-44.024,6.505-67.528c9.57-11.336,21.612-19.439,33.907-22.817c12.431-3.417,23.643-1.608,31.576,5.089
						c16.261,13.731,13.344,44.023-6.504,67.529C573.679,799.789,556.174,808.549,541.166,808.551z M573.697,711.791
						c-3.587,0-7.38,0.534-11.309,1.614c-11.909,3.273-23.597,11.149-32.91,22.179c-19.135,22.662-22.159,51.691-6.741,64.71
						c15.416,13.019,43.528,5.173,62.666-17.489c19.135-22.663,22.159-51.692,6.74-64.71
						C587.204,713.922,580.862,711.791,573.697,711.791z"/>
					<path style="fill:#363E44;" d="M691.279,736.966c-21.085-30.45-76.104-24.302-99.038,2.627
						c-24.514,28.785-16.327,72.174-0.032,93.613c9.687,12.745,30.034,28.951,40.089,20.845c12.166-9.807-6.162-31.712,5.943-64.834
						C647.589,763.634,682.944,757.647,691.279,736.966z"/>
				</g>
				<g>
					<path style="fill:#9E6C5A;" d="M649.709,795.915c9.209,8.383,10.93,21.489,3.844,29.273
						c-7.086,7.784-20.295,7.298-29.505-1.086c-9.209-8.383-10.93-21.489-3.844-29.273
						C627.29,787.045,640.5,787.531,649.709,795.915z"/>
					<path style="fill:#363E44;" d="M632.197,819.58c-0.184,0-0.37-0.051-0.537-0.157c-0.695-0.444-1.36-0.953-1.975-1.513
						c-2.438-2.219-4.001-5.118-4.4-8.161c-0.408-3.107,0.438-5.993,2.381-8.127c0.985-1.082,2.19-1.903,3.582-2.441
						c0.514-0.2,1.094,0.057,1.293,0.572c0.199,0.515-0.057,1.094-0.572,1.293c-1.1,0.425-2.05,1.072-2.824,1.922
						c-1.54,1.691-2.207,4.007-1.877,6.52c0.339,2.576,1.675,5.042,3.764,6.943c0.531,0.483,1.104,0.923,1.705,1.305
						c0.465,0.297,0.602,0.916,0.305,1.381C632.851,819.417,632.527,819.58,632.197,819.58z"/>
				</g>
				<g>
					<path style="fill:#FFFFFF;" d="M652.15,791.247c0,0,7.911-6.409,18.531-8.421c2.259-0.428,1.425,18.461-0.914,17.844
						C659.484,797.955,652.15,791.247,652.15,791.247z"/>
					<path style="fill:#373E44;" d="M677.777,782.242c-2.45-0.073-4.82,0.167-7.076,0.594c-3.496,5.545-3.662,12.292-0.942,17.827
						c2.341,0.619,4.835,1.033,7.431,1.112c13.992,0.42,25.628-9.005,25.628-9.005S691.769,782.663,677.777,782.242z"/>
				</g>
				<path style="fill:#363E44;" d="M700.454,825.443c-0.998,0-1.996-0.193-2.937-0.596c-4.021-1.718-4.621-6.172-4.645-6.361
					c-0.068-0.548,0.32-1.048,0.868-1.116c0.55-0.073,1.048,0.32,1.116,0.868c0.005,0.034,0.484,3.505,3.445,4.771
					c2.355,1.006,5.211,0.231,6.946-1.885c0.35-0.425,0.979-0.49,1.407-0.139c0.428,0.351,0.489,0.98,0.14,1.408
					C705.182,824.359,702.817,825.443,700.454,825.443z"/>
				<path style="fill:#363E44;" d="M716.604,806.122c-0.231,0-0.461-0.079-0.649-0.239c-0.42-0.358-0.47-0.989-0.111-1.41
					c2.184-2.56,3.079-4.589,2.59-5.87c-0.249-0.649-0.78-0.984-1.863-1.62c-0.871-0.512-1.955-1.148-3.109-2.237
					c-1.707-1.607-2.995-3.659-3.83-6.097c-0.179-0.522,0.1-1.091,0.622-1.27c0.522-0.179,1.091,0.1,1.271,0.623
					c0.727,2.127,1.841,3.907,3.309,5.289c0.991,0.934,1.926,1.483,2.751,1.968c1.136,0.667,2.208,1.297,2.718,2.63
					c0.789,2.063-0.171,4.641-2.935,7.882C717.167,806.002,716.886,806.122,716.604,806.122z"/>
			</g>
			<g>
				<g>
					<g>
						<path style="fill:#363E44;" d="M662.215,1165.266c-0.178,0-0.358-0.047-0.521-0.147c-0.471-0.289-0.619-0.904-0.33-1.375
							l18.676-30.481c0.288-0.471,0.904-0.619,1.375-0.33c0.471,0.289,0.619,0.904,0.33,1.375l-18.676,30.481
							C662.88,1165.096,662.552,1165.266,662.215,1165.266z"/>
						<path style="fill:#363E44;" d="M651.658,1158.745c-0.178,0-0.358-0.047-0.521-0.147c-0.471-0.289-0.619-0.904-0.33-1.375
							l18.676-30.481c0.288-0.471,0.901-0.621,1.375-0.33c0.471,0.289,0.619,0.904,0.33,1.375l-18.676,30.481
							C652.323,1158.575,651.995,1158.745,651.658,1158.745z"/>
						<path style="fill:#363E44;" d="M619.671,1237.811c-3.513,0-6.96-0.984-10.008-2.897c-8.827-5.538-11.503-17.225-5.965-26.052
							l56.124-89.45c1.242-1.982,3.183-3.361,5.463-3.883c2.284-0.523,4.628-0.125,6.609,1.118l17.18,10.779
							c1.982,1.243,3.36,3.184,3.883,5.464c0.522,2.28,0.125,4.627-1.119,6.609l-56.123,89.45c-2.683,4.276-6.87,7.251-11.791,8.378
							C622.511,1237.65,621.085,1237.811,619.671,1237.811z M667.253,1117.306c-0.506,0-1.016,0.057-1.522,0.173
							c-1.759,0.403-3.257,1.467-4.216,2.996l-56.124,89.45c-4.951,7.894-2.559,18.344,5.334,23.295
							c7.893,4.953,18.344,2.561,23.296-5.333l56.123-89.45c0.959-1.529,1.266-3.34,0.862-5.1c-0.402-1.759-1.467-3.257-2.995-4.216
							l-17.18-10.779C669.742,1117.658,668.509,1117.306,667.253,1117.306z"/>
						<path style="fill:#363E44;" d="M688.513,1129.352c-0.187,0-0.371-0.052-0.531-0.153l-17.207-10.796
							c-0.468-0.293-0.609-0.911-0.315-1.378l63.877-101.808c0.141-0.225,0.365-0.384,0.623-0.443
							c0.26-0.06,0.531-0.013,0.755,0.128l17.207,10.796c0.468,0.293,0.609,0.911,0.315,1.378l-63.877,101.808
							c-0.141,0.225-0.365,0.384-0.623,0.443C688.662,1129.343,688.587,1129.352,688.513,1129.352z M672.685,1117.24l15.513,9.733
							l62.813-100.114l-15.513-9.733L672.685,1117.24z"/>
					</g>
					<g>
						
							<ellipse transform="matrix(0.7071 -0.7071 0.7071 0.7071 -464.0074 831.2139)" style="fill:#D87355;" cx="771.36" cy="975.714" rx="115.047" ry="115.047"/>
						<path style="fill:#FFFFFF;" d="M771.392,1091.823c-14.313,0-28.645-2.683-42.372-8.063
							c-27.709-10.858-49.951-31.658-62.629-58.567c-13.751-29.186-14.844-61.794-3.077-91.819
							c23.346-59.577,90.809-89.052,150.388-65.707c59.576,23.346,89.053,90.81,65.706,150.387
							c-11.31,28.86-33.181,51.589-61.585,64C802.928,1088.561,787.17,1091.823,771.392,1091.823z M668.199,1024.34
							c12.46,26.446,34.319,46.887,61.551,57.558c58.553,22.945,124.852-6.024,147.796-64.574
							c22.943-58.551-6.024-124.852-64.575-147.795c-58.551-22.944-124.851,6.025-147.796,64.574
							C653.612,963.611,654.685,995.658,668.199,1024.34z"/>
						<path style="fill:#FFFFFF;" d="M771.35,1063.249c-10.851,0-21.515-2.029-31.797-6.058
							c-18.631-7.301-33.766-20.295-43.766-37.577c-0.277-0.478-0.113-1.09,0.364-1.367c0.477-0.275,1.089-0.113,1.366,0.365
							c9.772,16.886,24.56,29.583,42.766,36.717c12.341,4.837,25.246,6.724,38.361,5.609c0.554-0.046,1.034,0.361,1.081,0.912
							c0.047,0.55-0.361,1.035-0.911,1.082C776.318,1063.143,773.828,1063.249,771.35,1063.249z"/>
						<path style="fill:#FFFFFF;" d="M857.46,985.979c-0.035,0-0.071-0.002-0.108-0.006c-0.549-0.059-0.946-0.552-0.887-1.102
							c1.697-15.731-1.035-31.636-7.9-45.997c-0.238-0.498-0.027-1.095,0.471-1.333c0.497-0.238,1.096-0.028,1.334,0.471
							c7.025,14.695,9.821,30.973,8.084,47.074C858.398,985.6,857.964,985.979,857.46,985.979z"/>
						<path style="fill:#FFFFFF;" d="M841.26,925.695c-0.309,0-0.613-0.142-0.809-0.41c-9.562-13.096-22.634-23.16-37.804-29.104
							c-11.738-4.6-24.019-6.531-36.502-5.747c-0.553,0.039-1.025-0.383-1.06-0.935c-0.035-0.551,0.384-1.026,0.935-1.061
							c12.773-0.805,25.344,1.173,37.357,5.88c15.524,6.084,28.902,16.384,38.688,29.787c0.326,0.446,0.229,1.072-0.218,1.397
							C841.671,925.633,841.464,925.695,841.26,925.695z"/>
						<path style="fill:#FFFFFF;" d="M691.773,1010.304c-0.39,0-0.761-0.23-0.922-0.612c-4.872-11.571-7.233-24.285-6.829-36.767
							c0.017-0.541,0.461-0.968,0.998-0.968c0.012,0,0.023,0,0.033,0.001c0.552,0.018,0.985,0.48,0.967,1.032
							c-0.395,12.196,1.914,24.619,6.675,35.926c0.214,0.509-0.024,1.096-0.534,1.31
							C692.035,1010.278,691.903,1010.304,691.773,1010.304z"/>
					</g>
				</g>
				<g>
					<path style="fill:#9E6C5A;" d="M409.354,1076.092c46.195,10.051,156.153,28.336,166.816,30.548
						c19.932,4.136,126.325,29.106,124.386,44.849c-0.926,7.522-21.641,3.638-28.605,2.121c5.021,3.998,15.626,11.452,12.435,19.327
						c-3.748,9.252-20.786,3.078-21.329,3.159c5.511,3.543,13.864,10.861,11.702,16.858c-2.813,7.802-13.286,7.689-20.58,5.546
						c0.472,1.22,8.739,9.384,6.818,14.089c-2.128,5.213-11.339,6.165-20.681,5.01c-17.712-3.66-87.309-14.191-121.36-17.698
						c-79.973-8.237-104.652-17.39-142.619-28.174C361.475,1167.505,386.686,1087.658,409.354,1076.092z"/>
					<path style="fill:#363E44;" d="M493.411,1091.844c-0.06,0-0.119-0.005-0.181-0.016c-22.375-4.076-68.744-12.619-84.081-15.778
						c-0.541-0.111-0.889-0.64-0.777-1.181c0.111-0.541,0.636-0.892,1.182-0.778c15.318,3.156,61.668,11.695,84.035,15.77
						c0.544,0.099,0.904,0.62,0.805,1.163C494.306,1091.506,493.885,1091.844,493.411,1091.844z"/>
					<path style="fill:#363E44;" d="M672.35,1153.922c-0.18,0-0.361-0.048-0.524-0.149c-3.588-2.218-7.356-4.204-11.202-5.902
						c-6.91-3.052-14.223-5.253-21.734-6.541c-0.544-0.094-0.91-0.61-0.816-1.155c0.094-0.544,0.605-0.908,1.154-0.817
						c7.674,1.316,15.144,3.564,22.205,6.683c3.929,1.735,7.779,3.764,11.444,6.03c0.47,0.291,0.615,0.907,0.325,1.376
						C673.012,1153.753,672.685,1153.922,672.35,1153.922z"/>
					<path style="fill:#363E44;" d="M663.56,1176.667c-0.145,0-0.291-0.031-0.43-0.098c-0.798-0.381-1.616-0.757-2.454-1.127
						c-6.911-3.053-14.225-5.253-21.734-6.541c-0.544-0.094-0.91-0.61-0.816-1.155c0.093-0.544,0.6-0.909,1.154-0.817
						c7.672,1.315,15.143,3.564,22.205,6.683c0.855,0.378,1.691,0.762,2.507,1.152c0.499,0.238,0.71,0.835,0.472,1.333
						C664.291,1176.457,663.934,1176.667,663.56,1176.667z"/>
					<path style="fill:#363E44;" d="M653.742,1199.186c-0.107,0-0.217-0.018-0.324-0.055c-4.672-1.602-9.525-2.839-14.426-3.679
						c-0.544-0.093-0.91-0.61-0.816-1.155c0.093-0.544,0.604-0.91,1.154-0.817c5.006,0.858,9.964,2.123,14.736,3.759
						c0.523,0.179,0.801,0.748,0.622,1.27C654.546,1198.924,654.158,1199.186,653.742,1199.186z"/>
				</g>
			</g>
		</g>
	</g>
</g>
</svg>
